<?xml version="1.0" encoding="UTF-8" standalone="no"?>
<!-- Created with Inkscape (http://www.inkscape.org/) -->

<svg
   width="67.733337mm"
   height="35.38929mm"
   viewBox="0 0 67.733337 35.38929"
   version="1.1"
   id="svg1"
   xml:space="preserve"
   xmlns="http://www.w3.org/2000/svg"
   xmlns:svg="http://www.w3.org/2000/svg"><defs
     id="defs1" /><g
     id="layer1"
     transform="translate(-118.11144,-124.9554)"><path
       id="path37"
       style="fill:#ffffff;fill-opacity:0.870588;stroke-width:0.221939"
       d="m 135.80579,124.95541 a 17.694422,17.694422 0 0 0 -15.32375,8.84721 17.694422,17.694422 0 0 0 0,17.69442 17.694422,17.694422 0 0 0 15.32375,8.84722 v -4.5e-4 h 0.56438 l 3.09328,-6.62088 h -0.81754 -2.84012 v -4.4e-4 a 11.073101,11.073101 0 0 1 -9.58975,-5.53634 11.073101,11.073101 0 0 1 0,-11.07354 11.073101,11.073101 0 0 1 9.58975,-5.53631 h 14.00512 l 3.09327,-6.62045 h -17.09839 z m 20.99879,4.4e-4 -6.68591,14.30986 c -0.0958,0.20496 -0.2007,0.43014 -0.30168,0.64631 l -9.54685,20.43268 h 8.27807 l 6.75568,-14.45897 h 11.34317 v 0.24101 l -2.04688,3.54843 h 5.18349 l 7.82854,-7.09945 -7.8268,-7.09901 h -5.18436 l 2.04732,3.54799 v 0.24058 h -8.25163 l 3.59264,-7.68896 h 8.2902 5.53069 6.94123 l 3.09327,-6.62047 h -10.0345 -5.53069 -5.19693 -1.12443 z" /></g></svg>
